<svg xmlns="http://www.w3.org/2000/svg" version="1.1" xmlns:xlink="http://www.w3.org/1999/xlink" xmlns:svgjs="http://svgjs.dev/svgjs" width="1440" height="560" preserveAspectRatio="none" viewBox="0 0 1440 560"><g mask="url(&quot;#SvgjsMask1636&quot;)" fill="none"><rect width="1440" height="560" x="0" y="0" fill="url(&quot;#SvgjsLinearGradient1637&quot;)"></rect><g transform="translate(0, 0)" stroke-linecap="round" stroke="url(&quot;#SvgjsLinearGradient1638&quot;)"><path d="M240 110.26 L240 449.74" stroke-width="22.5"></path><path d="M270 251.5 L270 308.5" stroke-width="22.5"></path><path d="M300 217.91 L300 342.1" stroke-width="22.5"></path><path d="M330 215.26 L330 344.74" stroke-width="22.5"></path><path d="M360 146.95 L360 413.05" stroke-width="22.5"></path><path d="M390 238.4 L390 321.61" stroke-width="22.5"></path><path d="M420 154.55 L420 405.45" stroke-width="22.5"></path><path d="M450 251.41 L450 308.59" stroke-width="22.5"></path><path d="M480 191.03 L480 368.98" stroke-width="22.5"></path><path d="M510 206.09 L510 353.9" stroke-width="22.5"></path><path d="M540 100.88 L540 459.12" stroke-width="22.5"></path><path d="M570 189.83 L570 370.17" stroke-width="22.5"></path><path d="M600 249 L600 311" stroke-width="22.5"></path><path d="M630 136.59 L630 423.41" stroke-width="22.5"></path><path d="M660 244.66 L660 315.33" stroke-width="22.5"></path><path d="M690 120.86 L690 439.14" stroke-width="22.5"></path><path d="M720 160.27 L720 399.73" stroke-width="22.5"></path><path d="M750 206.45 L750 353.55" stroke-width="22.5"></path><path d="M780 169.46 L780 390.54" stroke-width="22.5"></path><path d="M810 228.92 L810 331.08" stroke-width="22.5"></path><path d="M840 139.2 L840 420.8" stroke-width="22.5"></path><path d="M870 171.72 L870 388.28" stroke-width="22.5"></path><path d="M900 190.72 L900 369.28" stroke-width="22.5"></path><path d="M930 106.47 L930 453.53" stroke-width="22.5"></path><path d="M960 161.44 L960 398.56" stroke-width="22.5"></path><path d="M990 116.89 L990 443.11" stroke-width="22.5"></path><path d="M1020 144.56 L1020 415.44" stroke-width="22.5"></path><path d="M1050 111.8 L1050 448.2" stroke-width="22.5"></path><path d="M1080 187.8 L1080 372.2" stroke-width="22.5"></path><path d="M1110 240.61 L1110 319.39" stroke-width="22.5"></path><path d="M1140 203.03 L1140 356.97" stroke-width="22.5"></path><path d="M1170 250.4 L1170 309.61" stroke-width="22.5"></path><path d="M1200 167.03 L1200 392.97" stroke-width="22.5"></path></g></g><defs><mask id="SvgjsMask1636"><rect width="1440" height="560" fill="#ffffff"></rect></mask><linearGradient x1="15.28%" y1="-39.29%" x2="84.72%" y2="139.29%" gradientUnits="userSpaceOnUse" id="SvgjsLinearGradient1637"><stop stop-color="#0e2a47" offset="0"></stop><stop stop-color="rgba(158, 0, 47, 1)" offset="1"></stop></linearGradient><linearGradient x1="216" y1="280" x2="1224" y2="280" gradientUnits="userSpaceOnUse" id="SvgjsLinearGradient1638"><stop stop-color="rgba(221, 17, 51, 1)" offset="0"></stop><stop stop-color="rgba(58, 124, 195, 1)" offset="1"></stop></linearGradient></defs></svg>